REM DIRINDEX 1\2,1\3,1\4,1\5\6,1\5\7,1\8
REM DIRNAME cjc115,folder01,folder02,folder03,folder04,folder05,folder06,folder07
TITLE ""
FILE "116 Åy116ÅzUnit7 (1309 swarm_1320 sanitation).mp3" MP3
  TRACK 01 AUDIO
    TITLE "0:"
    INDEX 01 00:00:00
  TRACK 02 AUDIO
    TITLE "2:cjc115_4542"
    INDEX 01 00:00:07
  TRACK 03 AUDIO
    TITLE "0:"
    INDEX 01 00:01:34
  TRACK 04 AUDIO
    TITLE "3:cjc115_4543"
    INDEX 01 00:01:44
  TRACK 05 AUDIO
    TITLE "0:"
    INDEX 01 00:02:30
  TRACK 06 AUDIO
    TITLE "4:cjc115_4544"
    INDEX 01 00:02:42
  TRACK 07 AUDIO
    TITLE "0:"
    INDEX 01 00:05:42
  TRACK 08 AUDIO
    TITLE "2:cjc115_4545"
    INDEX 01 00:06:53
  TRACK 09 AUDIO
    TITLE "0:"
    INDEX 01 00:08:01
  TRACK 10 AUDIO
    TITLE "3:cjc115_4546"
    INDEX 01 00:08:05
  TRACK 11 AUDIO
    TITLE "0:"
    INDEX 01 00:10:14
  TRACK 12 AUDIO
    TITLE "4:cjc115_4547"
    INDEX 01 00:10:29
  TRACK 13 AUDIO
    TITLE "0:"
    INDEX 01 00:14:54
  TRACK 14 AUDIO
    TITLE "2:cjc115_4548"
    INDEX 01 00:15:64
  TRACK 15 AUDIO
    TITLE "0:"
    INDEX 01 00:17:10
  TRACK 16 AUDIO
    TITLE "3:cjc115_4549"
    INDEX 01 00:17:16
  TRACK 17 AUDIO
    TITLE "0:"
    INDEX 01 00:18:46
  TRACK 18 AUDIO
    TITLE "4:cjc115_4550"
    INDEX 01 00:18:54
  TRACK 19 AUDIO
    TITLE "0:"
    INDEX 01 00:21:57
  TRACK 20 AUDIO
    TITLE "2:cjc115_4551"
    INDEX 01 00:22:66
  TRACK 21 AUDIO
    TITLE "0:"
    INDEX 01 00:24:27
  TRACK 22 AUDIO
    TITLE "3:cjc115_4552"
    INDEX 01 00:24:37
  TRACK 23 AUDIO
    TITLE "0:"
    INDEX 01 00:27:04
  TRACK 24 AUDIO
    TITLE "4:cjc115_4553"
    INDEX 01 00:27:14
  TRACK 25 AUDIO
    TITLE "0:"
    INDEX 01 00:31:20
  TRACK 26 AUDIO
    TITLE "2:cjc115_4554"
    INDEX 01 00:32:31
  TRACK 27 AUDIO
    TITLE "0:"
    INDEX 01 00:33:48
  TRACK 28 AUDIO
    TITLE "3:cjc115_4555"
    INDEX 01 00:33:56
  TRACK 29 AUDIO
    TITLE "0:"
    INDEX 01 00:35:23
  TRACK 30 AUDIO
    TITLE "4:cjc115_4556"
    INDEX 01 00:35:33
  TRACK 31 AUDIO
    TITLE "0:"
    INDEX 01 00:38:69
  TRACK 32 AUDIO
    TITLE "2:cjc115_4557"
    INDEX 01 00:40:03
  TRACK 33 AUDIO
    TITLE "0:"
    INDEX 01 00:41:32
  TRACK 34 AUDIO
    TITLE "3:cjc115_4558"
    INDEX 01 00:41:38
  TRACK 35 AUDIO
    TITLE "0:"
    INDEX 01 00:43:27
  TRACK 36 AUDIO
    TITLE "4:cjc115_4559"
    INDEX 01 00:43:33
  TRACK 37 AUDIO
    TITLE "0:"
    INDEX 01 00:46:58
  TRACK 38 AUDIO
    TITLE "2:cjc115_4560"
    INDEX 01 00:47:70
  TRACK 39 AUDIO
    TITLE "0:"
    INDEX 01 00:49:21
  TRACK 40 AUDIO
    TITLE "3:cjc115_4561"
    INDEX 01 00:49:31
  TRACK 41 AUDIO
    TITLE "0:"
    INDEX 01 00:50:23
  TRACK 42 AUDIO
    TITLE "4:cjc115_4562"
    INDEX 01 00:50:35
  TRACK 43 AUDIO
    TITLE "0:"
    INDEX 01 00:54:58
  TRACK 44 AUDIO
    TITLE "2:cjc115_4563"
    INDEX 01 00:55:69
  TRACK 45 AUDIO
    TITLE "0:"
    INDEX 01 00:57:07
  TRACK 46 AUDIO
    TITLE "3:cjc115_4564"
    INDEX 01 00:57:11
  TRACK 47 AUDIO
    TITLE "0:"
    INDEX 01 00:58:44
  TRACK 48 AUDIO
    TITLE "4:cjc115_4565"
    INDEX 01 00:58:50
  TRACK 49 AUDIO
    TITLE "0:"
    INDEX 01 01:01:46
  TRACK 50 AUDIO
    TITLE "2:cjc115_4566"
    INDEX 01 01:02:55
  TRACK 51 AUDIO
    TITLE "0:"
    INDEX 01 01:04:13
  TRACK 52 AUDIO
    TITLE "3:cjc115_4567"
    INDEX 01 01:04:21
  TRACK 53 AUDIO
    TITLE "0:"
    INDEX 01 01:06:63
  TRACK 54 AUDIO
    TITLE "4:cjc115_4568"
    INDEX 01 01:06:71
  TRACK 55 AUDIO
    TITLE "0:"
    INDEX 01 01:11:37
  TRACK 56 AUDIO
    TITLE "2:cjc115_4569"
    INDEX 01 01:12:50
  TRACK 57 AUDIO
    TITLE "0:"
    INDEX 01 01:13:71
  TRACK 58 AUDIO
    TITLE "3:cjc115_4570"
    INDEX 01 01:14:06
  TRACK 59 AUDIO
    TITLE "0:"
    INDEX 01 01:17:08
  TRACK 60 AUDIO
    TITLE "4:cjc115_4571"
    INDEX 01 01:17:14
  TRACK 61 AUDIO
    TITLE "0:"
    INDEX 01 01:20:61
  TRACK 62 AUDIO
    TITLE "2:cjc115_4572"
    INDEX 01 01:21:69
  TRACK 63 AUDIO
    TITLE "0:"
    INDEX 01 01:23:15
  TRACK 64 AUDIO
    TITLE "3:cjc115_4573"
    INDEX 01 01:23:24
  TRACK 65 AUDIO
    TITLE "0:"
    INDEX 01 01:25:31
  TRACK 66 AUDIO
    TITLE "4:cjc115_4574"
    INDEX 01 01:25:33
  TRACK 67 AUDIO
    TITLE "0:"
    INDEX 01 01:28:33
  TRACK 68 AUDIO
    TITLE "2:cjc115_4575"
    INDEX 01 01:29:41
  TRACK 69 AUDIO
    TITLE "0:"
    INDEX 01 01:31:08
  TRACK 70 AUDIO
    TITLE "3:cjc115_4576"
    INDEX 01 01:31:16
  TRACK 71 AUDIO
    TITLE "0:"
    INDEX 01 01:32:64
  TRACK 72 AUDIO
    TITLE "4:cjc115_4577"
    INDEX 01 01:32:74
  TRACK 73 AUDIO
    TITLE "0:"
    INDEX 01 01:36:72
